<svg width="50" height="50" viewBox="0 0 50 50" fill="none" xmlns="http://www.w3.org/2000/svg">
<g id="Google" clip-path="url(#clip0_72_943)">
<path id="Vector" d="M49.9736 25.4675C49.9736 23.4191 49.8035 21.9242 49.4354 20.374H25.498V29.6198H39.5487C39.2656 31.9175 37.7358 35.3778 34.3364 37.703L34.2887 38.0126L41.8573 43.7422L42.3817 43.7933C47.1974 39.4471 49.9736 33.0525 49.9736 25.4675Z" fill="#4285F4"/>
<path id="Vector_2" d="M25.4981 49.8284C32.3818 49.8284 38.1607 47.6137 42.3817 43.7937L34.3365 37.7034C32.1836 39.1706 29.294 40.1948 25.4981 40.1948C18.7561 40.1948 13.0338 35.8489 10.994 29.8418L10.695 29.8666L2.82509 35.8183L2.72217 36.0979C6.9147 44.2365 15.5265 49.8284 25.4981 49.8284Z" fill="#34A853"/>
<path id="Vector_3" d="M10.9937 29.8418C10.4555 28.2916 10.144 26.6306 10.144 24.9143C10.144 23.1979 10.4555 21.537 10.9654 19.9869L10.9511 19.6567L2.9826 13.6094L2.72189 13.7306C0.993941 17.1078 0.00244141 20.9004 0.00244141 24.9143C0.00244141 28.9283 0.993941 32.7206 2.72189 36.0979L10.9937 29.8418Z" fill="#FBBC05"/>
<path id="Vector_4" d="M25.4981 9.6334C30.2855 9.6334 33.5149 11.6542 35.3563 13.3429L42.5517 6.47767C38.1326 2.46374 32.3818 0 25.4981 0C15.5265 0 6.9147 5.59179 2.72217 13.7303L10.9657 19.9866C13.0338 13.9796 18.7561 9.6334 25.4981 9.6334Z" fill="#700D0F"/>
</g>
<defs>
<clipPath id="clip0_72_943">
<rect width="50" height="50" fill="white"/>
</clipPath>
</defs>
</svg>
